<mxfile host="app.diagrams.net" modified="2023-08-24T08:13:52.106Z" agent="Mozilla/5.0 (Windows NT 10.0; Win64; x64) AppleWebKit/537.36 (KHTML, like Gecko) Chrome/116.0.0.0 Safari/537.36 Edg/116.0.1938.54" etag="OfC1Ibd_NYygQyNCKC9F" version="21.6.9" type="github">
  <diagram id="C5RBs43oDa-KdzZeNtuy" name="Page-1">
    <mxGraphModel dx="739" dy="542" grid="1" gridSize="10" guides="1" tooltips="1" connect="1" arrows="1" fold="1" page="1" pageScale="1" pageWidth="827" pageHeight="1169" math="0" shadow="0">
      <root>
        <mxCell id="WIyWlLk6GJQsqaUBKTNV-0" />
        <mxCell id="WIyWlLk6GJQsqaUBKTNV-1" parent="WIyWlLk6GJQsqaUBKTNV-0" />
        <mxCell id="qLBoOkaI8CdQflgXVHsK-9" value="" style="edgeStyle=orthogonalEdgeStyle;rounded=0;orthogonalLoop=1;jettySize=auto;html=1;" edge="1" parent="WIyWlLk6GJQsqaUBKTNV-1" source="WIyWlLk6GJQsqaUBKTNV-3" target="qLBoOkaI8CdQflgXVHsK-7">
          <mxGeometry relative="1" as="geometry" />
        </mxCell>
        <mxCell id="WIyWlLk6GJQsqaUBKTNV-3" value="类器官培养" style="rounded=1;whiteSpace=wrap;html=1;fontSize=12;glass=0;strokeWidth=1;shadow=0;" parent="WIyWlLk6GJQsqaUBKTNV-1" vertex="1">
          <mxGeometry x="402" y="96" width="213" height="40" as="geometry" />
        </mxCell>
        <mxCell id="qLBoOkaI8CdQflgXVHsK-3" value="消化质检是否合格？" style="ellipse;whiteSpace=wrap;html=1;fillColor=#f8cecc;strokeColor=#b85450;" vertex="1" parent="WIyWlLk6GJQsqaUBKTNV-1">
          <mxGeometry x="381.75" y="295" width="252" height="68" as="geometry" />
        </mxCell>
        <mxCell id="qLBoOkaI8CdQflgXVHsK-15" value="" style="edgeStyle=orthogonalEdgeStyle;rounded=0;orthogonalLoop=1;jettySize=auto;html=1;" edge="1" parent="WIyWlLk6GJQsqaUBKTNV-1" source="qLBoOkaI8CdQflgXVHsK-7" target="qLBoOkaI8CdQflgXVHsK-13">
          <mxGeometry relative="1" as="geometry" />
        </mxCell>
        <mxCell id="qLBoOkaI8CdQflgXVHsK-7" value="消化质检" style="rounded=1;whiteSpace=wrap;html=1;fontSize=12;glass=0;strokeWidth=1;shadow=0;" vertex="1" parent="WIyWlLk6GJQsqaUBKTNV-1">
          <mxGeometry x="448.5" y="163" width="120" height="40" as="geometry" />
        </mxCell>
        <mxCell id="qLBoOkaI8CdQflgXVHsK-16" value="" style="edgeStyle=orthogonalEdgeStyle;rounded=0;orthogonalLoop=1;jettySize=auto;html=1;" edge="1" parent="WIyWlLk6GJQsqaUBKTNV-1" source="qLBoOkaI8CdQflgXVHsK-13" target="qLBoOkaI8CdQflgXVHsK-3">
          <mxGeometry relative="1" as="geometry" />
        </mxCell>
        <mxCell id="qLBoOkaI8CdQflgXVHsK-13" value="细胞形态分类" style="rounded=0;whiteSpace=wrap;html=1;fillColor=#e1d5e7;strokeColor=#9673a6;align=center;" vertex="1" parent="WIyWlLk6GJQsqaUBKTNV-1">
          <mxGeometry x="447" y="231" width="121.5" height="30" as="geometry" />
        </mxCell>
        <mxCell id="qLBoOkaI8CdQflgXVHsK-14" value="&lt;span style=&quot;color: rgb(0, 0, 0); font-family: Helvetica; font-size: 12px; font-style: normal; font-variant-ligatures: normal; font-variant-caps: normal; font-weight: 400; letter-spacing: normal; orphans: 2; text-align: center; text-indent: 0px; text-transform: none; widows: 2; word-spacing: 0px; -webkit-text-stroke-width: 0px; background-color: rgb(251, 251, 251); text-decoration-thickness: initial; text-decoration-style: initial; text-decoration-color: initial; float: none; display: inline !important;&quot;&gt;（组织纤维化&amp;amp;脂肪浸润）&lt;/span&gt;" style="text;whiteSpace=wrap;html=1;" vertex="1" parent="WIyWlLk6GJQsqaUBKTNV-1">
          <mxGeometry x="582.25" y="233" width="156" height="36" as="geometry" />
        </mxCell>
        <mxCell id="qLBoOkaI8CdQflgXVHsK-17" value="" style="shape=flexArrow;endArrow=classic;html=1;rounded=0;" edge="1" parent="WIyWlLk6GJQsqaUBKTNV-1">
          <mxGeometry width="50" height="50" relative="1" as="geometry">
            <mxPoint x="508" y="374" as="sourcePoint" />
            <mxPoint x="508.25" y="419" as="targetPoint" />
          </mxGeometry>
        </mxCell>
        <mxCell id="qLBoOkaI8CdQflgXVHsK-18" value="合格" style="text;html=1;strokeColor=none;fillColor=none;align=center;verticalAlign=middle;whiteSpace=wrap;rounded=0;" vertex="1" parent="WIyWlLk6GJQsqaUBKTNV-1">
          <mxGeometry x="507" y="372" width="61.5" height="28" as="geometry" />
        </mxCell>
        <mxCell id="qLBoOkaI8CdQflgXVHsK-20" value="不合格" style="text;html=1;strokeColor=none;fillColor=none;align=center;verticalAlign=middle;whiteSpace=wrap;rounded=0;" vertex="1" parent="WIyWlLk6GJQsqaUBKTNV-1">
          <mxGeometry x="633.75" y="290" width="60" height="30" as="geometry" />
        </mxCell>
        <mxCell id="qLBoOkaI8CdQflgXVHsK-30" value="" style="shape=flexArrow;endArrow=classic;html=1;rounded=0;" edge="1" parent="WIyWlLk6GJQsqaUBKTNV-1">
          <mxGeometry width="50" height="50" relative="1" as="geometry">
            <mxPoint x="640" y="328.5" as="sourcePoint" />
            <mxPoint x="690" y="328.5" as="targetPoint" />
          </mxGeometry>
        </mxCell>
        <mxCell id="qLBoOkaI8CdQflgXVHsK-31" value="种胶前质检" style="rounded=1;whiteSpace=wrap;html=1;fontSize=12;glass=0;strokeWidth=1;shadow=0;" vertex="1" parent="WIyWlLk6GJQsqaUBKTNV-1">
          <mxGeometry x="448.5" y="430" width="120" height="40" as="geometry" />
        </mxCell>
        <mxCell id="qLBoOkaI8CdQflgXVHsK-32" value="细胞计数" style="rounded=0;whiteSpace=wrap;html=1;fillColor=#e1d5e7;strokeColor=#9673a6;align=center;" vertex="1" parent="WIyWlLk6GJQsqaUBKTNV-1">
          <mxGeometry x="353" y="500" width="121.5" height="30" as="geometry" />
        </mxCell>
        <mxCell id="qLBoOkaI8CdQflgXVHsK-33" value="细胞死活分类" style="rounded=0;whiteSpace=wrap;html=1;fillColor=#e1d5e7;strokeColor=#9673a6;align=center;" vertex="1" parent="WIyWlLk6GJQsqaUBKTNV-1">
          <mxGeometry x="493.5" y="500" width="121.5" height="30" as="geometry" />
        </mxCell>
        <mxCell id="qLBoOkaI8CdQflgXVHsK-34" value="细胞死活分类" style="rounded=0;whiteSpace=wrap;html=1;fillColor=#e1d5e7;strokeColor=#9673a6;align=center;" vertex="1" parent="WIyWlLk6GJQsqaUBKTNV-1">
          <mxGeometry x="633.75" y="500" width="121.5" height="30" as="geometry" />
        </mxCell>
      </root>
    </mxGraphModel>
  </diagram>
</mxfile>
